<svg width="280" height="62" viewBox="0 0 280 62" fill="none" xmlns="http://www.w3.org/2000/svg">
<path d="M20.3361 51.9978C16.2701 46.7005 12.9811 40.4732 4 38.4725C47.3408 20.2279 53.2918 38.6014 50.8497 50.0687C41.1328 40.4825 30.7346 39.5033 26.7501 40.2119C38.3179 41.6035 45.7727 51.1775 48.3434 55.1717C45.0798 60.9816 37.1584 61.8675 31.2867 60.3389C26.771 59.1632 23.1773 55.6994 20.3361 51.9978Z" fill="#009C87"/>
<path d="M116 1.30831C50.2946 -2.55707 47.8782 30.8785 54.8832 48.0794C58.7391 38.9314 70.1142 19.9781 84.7668 17.3496C72.7362 20.9058 63.9447 41.8948 61.0527 51.9448C71.3731 58.5864 82.0676 56.0034 89.7233 47.1131C99.9977 34.5506 94.2138 25.8535 116 1.30831Z" fill="#006B5C"/>
<path d="M136.8 16.92V45H129.96V33.44H119.32V45H112.48V16.92H119.32V27.92H129.96V16.92H136.8ZM151.898 45.32C149.711 45.32 147.738 44.8533 145.978 43.92C144.244 42.9867 142.871 41.6533 141.858 39.92C140.871 38.1867 140.378 36.16 140.378 33.84C140.378 31.5467 140.884 29.5333 141.898 27.8C142.911 26.04 144.298 24.6933 146.058 23.76C147.818 22.8267 149.791 22.36 151.978 22.36C154.164 22.36 156.138 22.8267 157.898 23.76C159.658 24.6933 161.044 26.04 162.058 27.8C163.071 29.5333 163.578 31.5467 163.578 33.84C163.578 36.1333 163.058 38.16 162.018 39.92C161.004 41.6533 159.604 42.9867 157.818 43.92C156.058 44.8533 154.084 45.32 151.898 45.32ZM151.898 39.4C153.204 39.4 154.311 38.92 155.218 37.96C156.151 37 156.618 35.6267 156.618 33.84C156.618 32.0533 156.164 30.68 155.258 29.72C154.378 28.76 153.284 28.28 151.978 28.28C150.644 28.28 149.538 28.76 148.658 29.72C147.778 30.6533 147.338 32.0267 147.338 33.84C147.338 35.6267 147.764 37 148.618 37.96C149.498 38.92 150.591 39.4 151.898 39.4ZM174.047 26.4C174.847 25.1733 175.847 24.2133 177.047 23.52C178.247 22.8 179.58 22.44 181.047 22.44V29.68H179.167C177.46 29.68 176.18 30.0533 175.327 30.8C174.473 31.52 174.047 32.8 174.047 34.64V45H167.207V22.68H174.047V26.4ZM196.756 39.2V45H193.276C190.796 45 188.863 44.4 187.476 43.2C186.089 41.9733 185.396 39.9867 185.396 37.24V28.36H182.676V22.68H185.396V17.24H192.236V22.68H196.716V28.36H192.236V37.32C192.236 37.9867 192.396 38.4667 192.716 38.76C193.036 39.0533 193.569 39.2 194.316 39.2H196.756ZM204.006 20.36C202.806 20.36 201.819 20.0133 201.046 19.32C200.299 18.6 199.926 17.72 199.926 16.68C199.926 15.6133 200.299 14.7333 201.046 14.04C201.819 13.32 202.806 12.96 204.006 12.96C205.179 12.96 206.139 13.32 206.886 14.04C207.659 14.7333 208.046 15.6133 208.046 16.68C208.046 17.72 207.659 18.6 206.886 19.32C206.139 20.0133 205.179 20.36 204.006 20.36ZM207.406 22.68V45H200.566V22.68H207.406ZM225.963 22.44C228.576 22.44 230.656 23.2933 232.203 25C233.776 26.68 234.563 29 234.563 31.96V45H227.763V32.88C227.763 31.3867 227.376 30.2267 226.603 29.4C225.829 28.5733 224.789 28.16 223.483 28.16C222.176 28.16 221.136 28.5733 220.363 29.4C219.589 30.2267 219.203 31.3867 219.203 32.88V45H212.363V22.68H219.203V25.64C219.896 24.6533 220.829 23.88 222.003 23.32C223.176 22.7333 224.496 22.44 225.963 22.44ZM242.716 20.36C241.516 20.36 240.529 20.0133 239.756 19.32C239.009 18.6 238.636 17.72 238.636 16.68C238.636 15.6133 239.009 14.7333 239.756 14.04C240.529 13.32 241.516 12.96 242.716 12.96C243.889 12.96 244.849 13.32 245.596 14.04C246.369 14.7333 246.756 15.6133 246.756 16.68C246.756 17.72 246.369 18.6 245.596 19.32C244.849 20.0133 243.889 20.36 242.716 20.36ZM246.156 47.88C246.156 50.6267 245.463 52.6 244.076 53.8C242.689 55.0267 240.756 55.64 238.276 55.64H235.596V49.84H237.236C237.983 49.84 238.516 49.6933 238.836 49.4C239.156 49.1067 239.316 48.6267 239.316 47.96V22.68H246.156V47.88ZM249.714 33.8C249.714 31.5067 250.14 29.4933 250.994 27.76C251.874 26.0267 253.06 24.6933 254.554 23.76C256.047 22.8267 257.714 22.36 259.554 22.36C261.127 22.36 262.5 22.68 263.674 23.32C264.874 23.96 265.794 24.8 266.434 25.84V22.68H273.274V45H266.434V41.84C265.767 42.88 264.834 43.72 263.634 44.36C262.46 45 261.087 45.32 259.514 45.32C257.7 45.32 256.047 44.8533 254.554 43.92C253.06 42.96 251.874 41.6133 250.994 39.88C250.14 38.12 249.714 36.0933 249.714 33.8ZM266.434 33.84C266.434 32.1333 265.954 30.7867 264.994 29.8C264.06 28.8133 262.914 28.32 261.554 28.32C260.194 28.32 259.034 28.8133 258.074 29.8C257.14 30.76 256.674 32.0933 256.674 33.8C256.674 35.5067 257.14 36.8667 258.074 37.88C259.034 38.8667 260.194 39.36 261.554 39.36C262.914 39.36 264.06 38.8667 264.994 37.88C265.954 36.8933 266.434 35.5467 266.434 33.84Z" fill="#111111"/>
</svg>
